<?xml version="1.0" standalone="no"?>
<!DOCTYPE svg PUBLIC "-//W3C//DTD SVG 20010904//EN"
 "http://www.w3.org/TR/2001/REC-SVG-20010904/DTD/svg10.dtd">
<svg version="1.0" xmlns="http://www.w3.org/2000/svg"
 width="16.000000pt" height="16.000000pt" viewBox="0 0 16.000000 16.000000"
 preserveAspectRatio="xMidYMid meet">
<metadata>
Created by potrace 1.11, written by Peter Selinger 2001-2013
</metadata>
<g transform="translate(0.000000,16.000000) scale(0.002000,-0.002000)"
fill="#000000" stroke="none">
<path d="M2440 3990 l0 -3370 210 0 210 0 0 3370 0 3370 -210 0 -210 0 0
-3370z"/>
<path d="M5140 3990 l0 -3370 210 0 210 0 0 3370 0 3370 -210 0 -210 0 0
-3370z"/>
<path d="M955 6628 c-3 -7 -4 -733 -3 -1613 l3 -1600 95 0 95 0 0 1610 0 1610
-93 3 c-68 2 -94 -1 -97 -10z"/>
<path d="M6855 6628 c-3 -7 -4 -733 -3 -1613 l3 -1600 95 0 95 0 0 1610 0
1610 -93 3 c-68 2 -94 -1 -97 -10z"/>
</g>
</svg>
