<?xml version="1.0" encoding="UTF-8"?>
<svg width="173px" height="33px" viewBox="0 0 173 33" version="1.1" xmlns="http://www.w3.org/2000/svg" xmlns:xlink="http://www.w3.org/1999/xlink">
    <!-- Generator: Sketch 52.2 (67145) - http://www.bohemiancoding.com/sketch -->
    <title>logo</title>
    <desc>Created with Sketch.</desc>
    <g id="Welcome" stroke="none" stroke-width="1" fill="none" fill-rule="evenodd">
        <g id="Desktop-HD-Copy-2" transform="translate(-92.000000, -66.000000)" fill="#FA6461">
            <g id="logo" transform="translate(92.562500, 56.558594)">
                <path d="M51.9026875,31.5573125 C50.0786875,31.5573125 48.4146875,30.7893125 47.1346875,29.1893125 L47.1346875,37.0613125 L43.0706875,37.0613125 L43.0706875,15.7173125 L47.1346875,15.7173125 L47.1346875,17.6693125 C48.3186875,16.1653125 50.0146875,15.3333125 51.9026875,15.3333125 C55.8706875,15.3333125 58.7506875,18.2773125 58.7506875,23.4293125 C58.7506875,28.5813125 55.8706875,31.5573125 51.9026875,31.5573125 Z M50.6226875,27.9413125 C52.9586875,27.9413125 54.5586875,26.1173125 54.5586875,23.4293125 C54.5586875,20.7733125 52.9586875,18.9493125 50.6226875,18.9493125 C49.3106875,18.9493125 47.8386875,19.6853125 47.1346875,20.7093125 L47.1346875,26.1493125 C47.8066875,27.1413125 49.3106875,27.9413125 50.6226875,27.9413125 Z M65.9506875,31.1733125 L61.8866875,31.1733125 L61.8866875,15.7173125 L65.9506875,15.7173125 L65.9506875,17.7973125 C67.0706875,16.4533125 68.9586875,15.3333125 70.8786875,15.3333125 L70.8786875,19.3013125 C70.5906875,19.2373125 70.2386875,19.2053125 69.7586875,19.2053125 C68.4146875,19.2053125 66.6226875,19.9733125 65.9506875,20.9653125 L65.9506875,31.1733125 Z M80.7346875,31.5573125 C75.6466875,31.5573125 72.5746875,27.8133125 72.5746875,23.4293125 C72.5746875,19.0453125 75.6466875,15.3333125 80.7346875,15.3333125 C85.8546875,15.3333125 88.9266875,19.0453125 88.9266875,23.4293125 C88.9266875,27.8133125 85.8546875,31.5573125 80.7346875,31.5573125 Z M80.7346875,27.9413125 C83.2946875,27.9413125 84.7026875,25.8613125 84.7026875,23.4293125 C84.7026875,21.0293125 83.2946875,18.9493125 80.7346875,18.9493125 C78.2066875,18.9493125 76.7986875,21.0293125 76.7986875,23.4293125 C76.7986875,25.8613125 78.2066875,27.9413125 80.7346875,27.9413125 Z M100.958687,31.5573125 C99.1346875,31.5573125 97.4706875,30.7893125 96.1906875,29.1893125 L96.1906875,37.0613125 L92.1266875,37.0613125 L92.1266875,15.7173125 L96.1906875,15.7173125 L96.1906875,17.6693125 C97.3746875,16.1653125 99.0706875,15.3333125 100.958687,15.3333125 C104.926688,15.3333125 107.806687,18.2773125 107.806687,23.4293125 C107.806687,28.5813125 104.926688,31.5573125 100.958687,31.5573125 Z M99.6786875,27.9413125 C102.014687,27.9413125 103.614688,26.1173125 103.614688,23.4293125 C103.614688,20.7733125 102.014687,18.9493125 99.6786875,18.9493125 C98.3666875,18.9493125 96.8946875,19.6853125 96.1906875,20.7093125 L96.1906875,26.1493125 C96.8626875,27.1413125 98.3666875,27.9413125 99.6786875,27.9413125 Z M118.206687,31.5573125 C113.502688,31.5573125 109.950687,28.3893125 109.950687,23.4293125 C109.950687,18.9493125 113.278687,15.3333125 117.950687,15.3333125 C122.590688,15.3333125 125.694687,18.7893125 125.694687,23.8133125 L125.694687,24.7733125 L114.206687,24.7733125 C114.494687,26.6613125 116.030687,28.2293125 118.654687,28.2293125 C119.966688,28.2293125 121.758688,27.6853125 122.750687,26.7253125 L124.574687,29.4133125 C123.038687,30.8213125 120.606687,31.5573125 118.206687,31.5573125 Z M121.790687,21.9573125 C121.662688,20.4853125 120.638688,18.6613125 117.950687,18.6613125 C115.422687,18.6613125 114.334688,20.4213125 114.174688,21.9573125 L121.790687,21.9573125 Z M132.862687,31.1733125 L128.798688,31.1733125 L128.798688,9.8293125 L132.862687,9.8293125 L132.862687,31.1733125 Z M141.118688,31.1733125 L137.054688,31.1733125 L137.054688,9.8293125 L141.118688,9.8293125 L141.118688,31.1733125 Z M152.574688,31.5573125 C147.870688,31.5573125 144.318688,28.3893125 144.318688,23.4293125 C144.318688,18.9493125 147.646688,15.3333125 152.318688,15.3333125 C156.958687,15.3333125 160.062688,18.7893125 160.062688,23.8133125 L160.062688,24.7733125 L148.574688,24.7733125 C148.862687,26.6613125 150.398687,28.2293125 153.022688,28.2293125 C154.334688,28.2293125 156.126688,27.6853125 157.118688,26.7253125 L158.942688,29.4133125 C157.406688,30.8213125 154.974688,31.5573125 152.574688,31.5573125 Z M156.158688,21.9573125 C156.030687,20.4853125 155.006687,18.6613125 152.318688,18.6613125 C149.790687,18.6613125 148.702688,20.4213125 148.542687,21.9573125 L156.158688,21.9573125 Z M167.230687,31.1733125 L163.166688,31.1733125 L163.166688,15.7173125 L167.230687,15.7173125 L167.230687,17.7973125 C168.350687,16.4533125 170.238687,15.3333125 172.158688,15.3333125 L172.158688,19.3013125 C171.870688,19.2373125 171.518687,19.2053125 171.038688,19.2053125 C169.694688,19.2053125 167.902688,19.9733125 167.230687,20.9653125 L167.230687,31.1733125 Z" id="propeller"></path>
                <path d="M17.9658577,12.1461163 C17.9508468,12.0760635 17.9340742,12.041037 17.91554,12.041037 C17.4018813,12.041037 13.1178987,12.041037 12.60424,12.041037 C12.5764387,12.041037 12.5539223,12.0880584 12.5539223,12.1461163 C12.5539223,13.7907504 12.5539223,34.2106273 12.5539223,35.8551687 C12.5539223,35.9132266 12.5764387,35.960248 12.60424,35.960248 C13.1178987,35.960248 17.4018813,35.960248 17.91554,35.960248 C17.9433413,35.960248 17.9658577,35.9132266 17.9658577,35.8551687 C17.9658577,34.7588078 17.9658577,26.8557903 17.9658577,12.1461163 Z" id="Fill-1"></path>
                <path d="M23.1944825,15.8353122 C23.1944825,15.7991796 23.1812404,15.7699157 23.1648902,15.7699157 C22.8628034,15.7699157 20.3433587,15.7699157 20.0412719,15.7699157 C20.0249217,15.7699157 20.0116796,15.7991796 20.0116796,15.8353122 C20.0116796,16.8588565 20.0116796,29.5672437 20.0116796,30.5907303 C20.0116796,30.6268628 20.0249217,30.6561267 20.0412719,30.6561267 C20.3433587,30.6561267 22.8628034,30.6561267 23.1648902,30.6561267 C23.1812404,30.6561267 23.1944825,30.6268628 23.1944825,30.5907303 C23.1944825,29.5672437 23.1944825,16.8588565 23.1944825,15.8353122 Z" id="Fill-1"></path>
                <path d="M10.3326176,12.0912346 C10.3326176,12.0778988 10.3286207,12.0651389 10.3214667,12.0557463 C10.3143462,12.0463093 10.3046732,12.041037 10.2945635,12.041037 C9.95986927,12.041037 7.52256296,12.041037 7.18786871,12.041037 C7.17775903,12.041037 7.16808598,12.0463093 7.16096554,12.0557463 C7.15381152,12.0651389 7.14981467,12.0778988 7.14981467,12.0912346 C7.14981467,13.2674874 7.14981467,34.7337799 7.14981467,35.9100505 C7.14981467,35.9233641 7.15381152,35.9361328 7.16096554,35.9455432 C7.16808598,35.954958 7.17775903,35.960248 7.18786871,35.960248 C7.52256296,35.960248 9.95986927,35.960248 10.2945635,35.960248 C10.3046732,35.960248 10.3143462,35.954958 10.3214667,35.9455432 C10.3286207,35.9361328 10.3326176,35.9233641 10.3326176,35.9100505 C10.3326176,34.7337799 10.3326176,13.2674874 10.3326176,12.0912346 Z" id="Fill-3"></path>
                <path d="M7.16583719,12.1056198 C7.16583719,12.0699368 7.14651585,12.041037 7.12265952,12.041037 C6.57564067,12.041037 1.00541565,12.041037 0.458396802,12.041037 C0.43454047,12.041037 0.415219127,12.0699368 0.415219127,12.1056198 C0.415219127,13.5922772 0.415219127,40.2621961 0.415219127,41.7488763 C0.415219127,41.7845422 0.43454047,41.8134534 0.458396802,41.8134591 C1.00541565,41.8134591 6.57564067,41.8134591 7.12265952,41.8134591 C7.14651585,41.8134534 7.16583719,41.7845422 7.16583719,41.7488763 C7.16583719,40.2621961 7.16583719,13.5922772 7.16583719,12.1056198 Z" id="Fill-4"></path>
            </g>
        </g>
    </g>
</svg>